<svg width="26" height="21" viewBox="0 0 26 21" fill="none" xmlns="http://www.w3.org/2000/svg">
<path d="M25.25 11C25.25 11.232 25.1578 11.4546 24.9937 11.6187C24.8296 11.7828 24.6071 11.875 24.375 11.875H21.4153L17.2831 20.1415C17.2104 20.2869 17.0986 20.4092 16.9603 20.4945C16.8219 20.5799 16.6626 20.6251 16.5 20.625H16.4563C16.2865 20.6166 16.1229 20.559 15.9854 20.4591C15.8479 20.3593 15.7424 20.2216 15.6819 20.0628L9.42891 3.64561L5.92125 11.362C5.85176 11.5149 5.73973 11.6446 5.59854 11.7356C5.45734 11.8265 5.29296 11.8749 5.125 11.875H1.625C1.39294 11.875 1.17038 11.7828 1.00628 11.6187C0.842187 11.4546 0.75 11.232 0.75 11C0.75 10.7679 0.842187 10.5454 1.00628 10.3813C1.17038 10.2172 1.39294 10.125 1.625 10.125H4.56172L8.70375 1.01295C8.77516 0.855712 8.8915 0.723117 9.03812 0.631869C9.18474 0.540621 9.35509 0.494801 9.5277 0.500181C9.70032 0.50556 9.86748 0.561898 10.0081 0.662099C10.1488 0.7623 10.2566 0.901883 10.3181 1.06327L16.6083 17.5789L20.0919 10.6106C20.1643 10.4648 20.276 10.3421 20.4143 10.2564C20.5527 10.1706 20.7122 10.1251 20.875 10.125H24.375C24.6071 10.125 24.8296 10.2172 24.9937 10.3813C25.1578 10.5454 25.25 10.7679 25.25 11Z" fill="#555555"/>
</svg>
