<svg width="24" height="22" viewBox="0 0 24 22" fill="none" xmlns="http://www.w3.org/2000/svg">
<path d="M24 2.74909V8.24935C24 8.49247 23.9028 8.72564 23.7296 8.89756C23.5565 9.06947 23.3218 9.16605 23.0769 9.16605H17.5386C17.2938 9.16605 17.059 9.06947 16.8859 8.89756C16.7128 8.72564 16.6156 8.49247 16.6156 8.24935C16.6156 8.00622 16.7128 7.77305 16.8859 7.60113C17.059 7.42922 17.2938 7.33264 17.5386 7.33264H20.7001L17.6321 4.54126L17.6032 4.51376C16.3203 3.24009 14.6879 2.3701 12.9099 2.01246C11.132 1.65481 9.28734 1.82538 7.60645 2.50284C5.92555 3.18031 4.48291 4.33464 3.45876 5.82163C2.4346 7.30862 1.87434 9.06235 1.84794 10.8637C1.82155 12.6651 2.33021 14.4343 3.31037 15.9502C4.29053 17.4662 5.69874 18.6617 7.35908 19.3875C9.01942 20.1132 10.8583 20.337 12.6459 20.0309C14.4336 19.7247 16.0908 18.9023 17.4106 17.6662C17.5885 17.4991 17.826 17.409 18.0709 17.4158C18.3157 17.4225 18.5478 17.5256 18.7161 17.7023C18.8844 17.879 18.9751 18.1149 18.9683 18.3581C18.9615 18.6012 18.8577 18.8317 18.6798 18.9989C16.6277 20.9317 13.9054 22.0063 11.0773 22H10.9249C9.11085 21.9753 7.33062 21.5085 5.74073 20.6405C4.15085 19.7725 2.79998 18.53 1.80686 17.0221C0.813745 15.5142 0.208783 13.7871 0.0451478 11.9927C-0.118487 10.1982 0.164215 8.39131 0.868406 6.73077C1.5726 5.07023 2.67672 3.60689 4.08373 2.46938C5.49073 1.33186 7.15755 0.554994 8.93767 0.207055C10.7178 -0.140885 12.5567 -0.049244 14.2928 0.473923C16.0289 0.997091 17.6091 1.93577 18.8944 3.20745L22.1539 6.16383V2.74909C22.1539 2.50597 22.2511 2.2728 22.4242 2.10088C22.5974 1.92897 22.8321 1.83239 23.0769 1.83239C23.3218 1.83239 23.5565 1.92897 23.7296 2.10088C23.9028 2.2728 24 2.50597 24 2.74909Z" fill="black"/>
</svg>
