<svg width="21" height="24" viewBox="0 0 21 24" fill="none" xmlns="http://www.w3.org/2000/svg">
<path d="M19.8691 7.00594L13.7441 0.880938C13.6627 0.799708 13.5662 0.735295 13.46 0.691381C13.3538 0.647466 13.2399 0.62491 13.125 0.625H2.625C2.16087 0.625 1.71575 0.809375 1.38756 1.13756C1.05937 1.46575 0.875 1.91087 0.875 2.375V21.625C0.875 22.0891 1.05937 22.5342 1.38756 22.8624C1.71575 23.1906 2.16087 23.375 2.625 23.375H18.375C18.8391 23.375 19.2842 23.1906 19.6124 22.8624C19.9406 22.5342 20.125 22.0891 20.125 21.625V7.625C20.1251 7.51006 20.1025 7.39623 20.0586 7.29001C20.0147 7.18379 19.9503 7.08726 19.8691 7.00594ZM14 3.61203L17.138 6.75H14V3.61203ZM18.375 21.625H2.625V2.375H12.25V7.625C12.25 7.85706 12.3422 8.07962 12.5063 8.24372C12.6704 8.40781 12.8929 8.5 13.125 8.5H18.375V21.625Z" fill="#555555"/>
</svg>
