<svg width="341" height="152" viewBox="0 0 341 152" fill="none" xmlns="http://www.w3.org/2000/svg">
<path d="M185.913 45.9102L166.555 87.4105L150.366 14.5283L120.085 127.932L98.4624 0L72.917 75.4346H55.2121L45.1807 60.4294L34.5819 75.4346H2.56008C1.14609 75.4346 0 76.5858 0 78.0028C0 79.422 1.14609 80.5733 2.56008 80.5733H37.2283L45.0646 69.4784L52.4812 80.5733H76.5848L96.7984 20.8819L118.96 152L149.91 36.0891L164.825 103.238L186.129 57.5683L199.273 83.2165H256.48L253.201 79.0542C244.164 67.5823 239.582 55.495 239.582 43.1308C239.582 30.0739 250.167 19.4536 263.175 19.4536C273.029 19.4536 281.933 25.6868 285.327 34.9651L287.73 41.5322L290.133 34.9674C293.531 25.6868 302.433 19.4536 312.287 19.4536C325.297 19.4536 335.882 30.0739 335.882 43.1308C335.882 52.2955 333.341 61.3718 328.336 70.1096C324.279 77.1853 318.602 84.0635 311.465 90.551C301.335 99.7567 291.072 105.574 287.73 107.359C284.63 105.704 275.573 100.579 266.203 92.5016C265.13 91.5774 263.515 91.7 262.594 92.7786C261.673 93.855 261.795 95.4763 262.868 96.4005C274.898 106.769 286.135 112.328 286.608 112.559L287.73 113.109L288.854 112.559C289.384 112.298 302.003 106.056 314.803 94.4499C322.362 87.5945 328.395 80.2895 332.734 72.7369C338.219 63.1907 341 53.2288 341 43.1308C341 27.2423 328.121 14.3148 312.287 14.3148C302.168 14.3148 292.871 19.7193 287.732 28.1937C282.594 19.7193 273.296 14.3148 263.175 14.3148C247.343 14.3148 234.462 27.2423 234.462 43.1308C234.462 55.1749 238.376 66.9079 246.106 78.0777H202.397L185.913 45.9102Z" fill="#254EB8"/>
</svg>
