<svg width="227" height="199" viewBox="0 0 227 199" fill="none" xmlns="http://www.w3.org/2000/svg">
<path d="M124.662 12.5888C124.662 12.5888 105.913 54.6702 56.3307 45.0301C6.74812 35.39 -23.1252 103.212 23.7508 127.942C70.6269 152.671 38.1406 181.079 69.4037 195.59C104.937 212.082 118.187 156.935 144.364 162.057C202.138 173.361 237.876 153.974 222.074 127.884C194.335 82.0863 174.194 83.7723 182.379 54.1975C190.564 24.6226 144.34 -20.7798 124.662 12.5888Z" fill="#DEE9FF"/>
<path d="M115.612 108.634C111.255 116.983 110.156 121.42 96.9409 129.705C96.8383 129.772 96.7613 129.872 96.7226 129.988C94.6113 136.534 91.0374 142.512 86.2718 147.471C86.2076 147.537 86.1625 147.619 86.1411 147.709C86.1198 147.798 86.123 147.892 86.1506 147.98C87.6297 152.903 89.2306 161.777 84.7765 169.052C78.2295 179.762 73.3805 173.295 74.3903 170.87C75.2551 168.793 82.6427 164.331 80.9372 153.185C80.9229 153.096 80.8858 153.012 80.8296 152.942C80.7734 152.871 80.7 152.816 80.6164 152.782C80.5327 152.748 80.4417 152.736 80.3521 152.747C80.2625 152.758 80.1773 152.792 80.1047 152.846C74.7499 156.732 68.6039 159.39 62.1046 160.63C62.0324 160.642 61.9636 160.669 61.9027 160.709C61.8417 160.75 61.7901 160.803 61.7511 160.865C61.7121 160.926 61.6867 160.996 61.6766 161.068C61.6664 161.141 61.6718 161.215 61.6923 161.285C63.3493 167.217 64.1333 176.489 57.2145 185.016C53.5208 189.461 48.6226 182.962 53.5208 178.534C56.5597 175.793 56.3254 167.913 54.9028 161.843C54.8757 161.725 54.8084 161.62 54.7126 161.547C54.6167 161.473 54.4982 161.435 54.3774 161.439C54.0946 161.447 53.8034 161.447 53.5208 161.447C43.5233 161.462 33.8036 158.158 25.886 152.054C25.8136 151.997 25.7277 151.96 25.6367 151.947C25.5458 151.934 25.4529 151.944 25.3673 151.978C25.2817 152.011 25.2062 152.066 25.1484 152.138C25.0905 152.209 25.0523 152.295 25.0373 152.385C23.1378 164.929 30.6793 169.27 31.754 172.487C32.9503 176.084 30.2021 179.284 26.8155 178.379C26.742 178.357 26.6735 178.322 26.6135 178.274C15.5725 169.981 16.5343 152.603 17.7467 144.238C17.7578 144.169 17.7541 144.099 17.736 144.033C17.7179 143.966 17.6857 143.903 17.6416 143.85C11.4672 135.905 8.12455 126.124 8.14437 116.062C8.14437 97.6088 19.1611 81.7262 34.979 74.6377C34.9801 74.6378 34.9811 74.6376 34.9821 74.6372C34.9831 74.6368 34.984 74.6363 34.9848 74.6355C34.9855 74.6348 34.9861 74.6339 34.9866 74.6329C34.987 74.6319 34.9872 74.6308 34.9871 74.6298C37.4199 71.5498 40.3864 67.1937 40.8391 64.1384C40.8541 64.0349 40.8995 63.9382 40.9697 63.8607C41.0398 63.7831 41.1315 63.7283 41.233 63.7031C41.3345 63.6779 41.4412 63.6836 41.5395 63.7194C41.6378 63.7551 41.7231 63.8194 41.7847 63.9039C42.9487 65.4719 44.7512 68.4626 44.3551 71.6149C44.3389 71.7199 44.3309 71.8249 44.3146 71.93C44.2823 72.1079 44.242 72.2776 44.2015 72.4554C44.1611 72.5929 44.1287 72.7302 44.0803 72.8677C44.6455 72.396 45.1849 71.8942 45.696 71.3643C46.8841 70.1439 48.3875 68.309 49.0342 66.345C49.0648 66.2402 49.1271 66.1475 49.2125 66.0796C49.298 66.0117 49.4024 65.9719 49.5114 65.9657C49.6204 65.9596 49.7286 65.9874 49.8211 66.0453C49.9137 66.1032 49.986 66.1883 50.0282 66.289C50.4482 67.3236 50.9415 68.7704 51.1112 70.2495C51.1259 70.3821 51.1895 70.5045 51.2896 70.5927C51.3898 70.6809 51.5193 70.7286 51.6527 70.7263C52.2752 70.7021 52.8975 70.686 53.5199 70.686C78.5843 70.686 98.9043 91.0058 98.9043 116.062C98.9043 116.636 98.8961 117.202 98.8718 117.768C98.8682 117.854 98.8858 117.94 98.9229 118.018C98.9601 118.096 99.0157 118.164 99.0849 118.216C99.1542 118.267 99.235 118.301 99.3204 118.315C99.4058 118.328 99.4932 118.321 99.575 118.293C102.275 117.347 105.677 115.068 107.73 109.644C111.57 99.5411 111.974 96.7123 110.762 88.8315C109.549 80.9508 115.41 81.3555 116.621 83.9819C117.833 86.6083 120.461 99.3385 115.612 108.634Z" fill="#0E84E5"/>
<path d="M35.7942 120.042C35.6396 120.042 35.4894 119.991 35.3671 119.896C35.2447 119.802 35.1571 119.67 35.1178 119.52C34.8131 118.189 34.7476 116.814 34.9245 115.46C35.3225 112.517 36.9241 110.354 39.5563 109.204C41.2763 108.453 42.9023 108.409 44.3888 109.076C47.4356 110.441 48.7327 114.313 48.7865 114.477C48.8386 114.652 48.8204 114.84 48.7358 115.002C48.6512 115.163 48.5068 115.286 48.3335 115.342C48.1601 115.399 47.9715 115.386 47.8077 115.306C47.6439 115.226 47.5179 115.085 47.4565 114.913C47.4454 114.879 46.2917 111.459 43.812 110.351C42.7018 109.855 41.4587 109.901 40.1171 110.487C37.9391 111.439 36.6609 113.161 36.3182 115.606C36.1616 116.793 36.214 117.998 36.473 119.166C36.5196 119.346 36.493 119.537 36.3991 119.697C36.3051 119.857 36.1515 119.973 35.9718 120.02C35.9138 120.035 35.8541 120.042 35.7942 120.042Z" fill="white"/>
<path d="M56.8959 113.632C56.7493 113.632 56.6063 113.586 56.4873 113.5C56.3683 113.414 56.2792 113.293 56.2326 113.154C55.8419 111.851 55.6873 110.489 55.7762 109.132C55.9827 106.181 57.4409 103.927 59.9933 102.614C61.6643 101.754 63.2864 101.606 64.8153 102.176C67.9373 103.338 69.4804 107.093 69.5445 107.252C69.6118 107.424 69.6086 107.615 69.5355 107.785C69.4625 107.954 69.3255 108.088 69.1544 108.157C68.9832 108.226 68.7918 108.224 68.6217 108.153C68.4516 108.081 68.3166 107.946 68.246 107.775C68.232 107.743 66.863 104.428 64.3217 103.486C63.1787 103.062 61.9383 103.188 60.6341 103.859C58.5227 104.945 57.3593 106.738 57.1761 109.188C57.097 110.376 57.2272 111.568 57.5609 112.711C57.5957 112.817 57.6049 112.929 57.588 113.038C57.5711 113.148 57.5284 113.252 57.4636 113.341C57.3987 113.431 57.3135 113.504 57.2148 113.555C57.1162 113.605 57.007 113.632 56.8962 113.632H56.8959Z" fill="white"/>
<path d="M55.1147 128.277C50.3504 128.277 46.7176 125.106 46.5358 124.945C46.467 124.883 46.411 124.81 46.3708 124.727C46.3307 124.644 46.3072 124.554 46.3018 124.463C46.2963 124.371 46.309 124.279 46.3391 124.192C46.3692 124.105 46.4161 124.025 46.4771 123.956C46.5381 123.888 46.6121 123.831 46.6948 123.791C46.7775 123.751 46.8673 123.728 46.9591 123.722C47.0509 123.717 47.1428 123.73 47.2297 123.76C47.3165 123.79 47.3966 123.837 47.4654 123.898C47.5131 123.94 52.3104 128.109 57.7116 126.499C63.0876 124.897 64.5619 118.071 64.5763 118.003C64.6156 117.823 64.7242 117.665 64.8787 117.565C65.0331 117.464 65.221 117.429 65.4014 117.466C65.5819 117.503 65.7404 117.61 65.8427 117.763C65.9449 117.917 65.9826 118.104 65.9475 118.285C65.6147 119.699 65.0933 121.062 64.3976 122.337C62.8606 125.17 60.6875 127.074 58.1115 127.841C57.139 128.131 56.1295 128.278 55.1147 128.277Z" fill="white"/>
<path d="M206.01 97.1195C205.95 98.6394 205.795 100.154 205.547 101.655C202.172 122.299 182.711 136.292 162.067 132.917C141.431 129.543 127.43 110.08 130.805 89.4363C131.02 88.1203 131.304 86.8323 131.641 85.5762C116.33 75.1784 117.224 55.128 120.159 52.9051C123.123 50.6541 126.36 52.5509 126.021 58.7774C125.674 67.8195 131.241 75.2974 134.328 78.5545C141.557 64.1424 157.534 55.4356 174.285 58.174C190.542 60.8313 202.669 73.469 205.447 88.7959C208.477 87.6942 213.828 84.515 218.164 75.4777C218.77 73.6766 218.937 72.3526 218.969 71.5552C218.991 70.8103 219.282 70.0984 219.788 69.5515C220.736 68.5599 222.415 67.5075 224.584 69.1234C225.077 69.4921 225.474 69.9736 225.743 70.5277C226.011 71.0818 226.143 71.6922 226.127 72.3077C225.991 77.1919 222.083 89.0753 206.01 97.1195Z" fill="#699CFF"/>
<path d="M183.489 103.815C182.533 109.662 174.492 113.212 165.534 111.748C156.568 110.282 150.076 104.356 151.031 98.5093C151.213 97.4205 151.639 96.3868 152.276 95.4853C152.45 95.2412 152.711 95.0733 153.006 95.016C153.3 94.9587 153.605 95.0164 153.858 95.1773C157.067 97.1867 162.148 98.9587 168.009 99.9169C173.403 100.799 178.395 100.812 182.027 100.123C182.323 100.066 182.63 100.125 182.883 100.288C183.136 100.451 183.317 100.705 183.388 100.998C183.607 101.921 183.641 102.879 183.489 103.815Z" fill="white"/>
<path d="M166.491 92.2136C166.39 92.2138 166.289 92.1918 166.197 92.1493C166.105 92.1067 166.023 92.0446 165.957 91.9673C165.891 91.8899 165.843 91.7992 165.816 91.7013C165.789 91.6035 165.783 91.5009 165.799 91.4006C166.034 89.9633 165.689 88.4915 164.838 87.309C163.988 86.1266 162.703 85.3303 161.266 85.0953C159.828 84.8604 158.357 85.206 157.174 86.0563C155.992 86.9065 155.195 88.1916 154.96 89.6289C154.93 89.8122 154.829 89.976 154.678 90.0843C154.527 90.1927 154.34 90.2368 154.157 90.2068C153.973 90.1768 153.81 90.0753 153.701 89.9246C153.593 89.7738 153.549 89.5862 153.579 89.403C153.874 87.5992 154.873 85.9864 156.357 84.9195C157.841 83.8525 159.688 83.4187 161.492 83.7136C163.295 84.0084 164.908 85.0078 165.975 86.4917C167.042 87.9757 167.476 89.8227 167.181 91.6265C167.154 91.7902 167.07 91.9392 166.944 92.0467C166.817 92.1542 166.657 92.2134 166.491 92.2136Z" fill="white"/>
<path d="M183.283 94.9587C183.181 94.9586 183.081 94.9365 182.989 94.8939C182.897 94.8512 182.815 94.7891 182.749 94.7118C182.684 94.6345 182.636 94.5438 182.608 94.4461C182.581 94.3483 182.575 94.2458 182.591 94.1456C182.82 92.7109 182.472 91.2438 181.621 90.0658C180.771 88.8877 179.488 88.0946 178.055 87.8602C176.621 87.6259 175.152 87.9693 173.971 88.8153C172.79 89.6613 171.992 90.9409 171.753 92.3739C171.738 92.4649 171.706 92.5521 171.657 92.6305C171.609 92.7089 171.546 92.777 171.471 92.8309C171.396 92.8848 171.312 92.9234 171.222 92.9446C171.132 92.9657 171.039 92.9689 170.948 92.9541C170.858 92.9392 170.77 92.9066 170.692 92.858C170.614 92.8094 170.546 92.7458 170.492 92.671C170.439 92.5961 170.4 92.5114 170.379 92.4216C170.359 92.3319 170.356 92.2389 170.371 92.1481C170.671 90.3489 171.672 88.742 173.154 87.6795C174.637 86.617 176.48 86.1856 178.28 86.4799C180.08 86.7741 181.69 87.77 182.757 89.2493C183.825 90.7286 184.262 92.5706 183.973 94.3716C183.946 94.5353 183.862 94.6843 183.736 94.7918C183.609 94.8994 183.449 94.9585 183.283 94.9587Z" fill="white"/>
</svg>
