<svg width="280" height="280" viewBox="0 0 280 280" fill="none" xmlns="http://www.w3.org/2000/svg">
<path d="M152.662 53.5888C152.662 53.5888 133.913 95.6702 84.3307 86.0301C34.7481 76.39 4.87478 144.212 51.7508 168.942C98.6269 193.671 66.1406 222.079 97.4037 236.59C132.937 253.082 146.187 197.935 172.364 203.057C230.138 214.361 265.876 194.974 250.074 168.884C222.335 123.086 202.194 124.772 210.379 95.1975C218.564 65.6226 172.34 20.2202 152.662 53.5888Z" fill="#DEE9FF"/>
<path d="M260.621 118.924C253.129 118.924 246.745 123.711 244.304 130.421C241.862 123.711 235.478 118.924 227.986 118.924C218.388 118.924 210.607 126.78 210.607 136.474C210.607 140.773 211.389 144.802 212.709 148.543H124.003L114.402 120.373L95.859 181.088L77.9509 96L57.4696 147.792H5.23336C3.99987 147.792 3 148.802 3 150.047C3 151.294 3.99987 152.304 5.23336 152.304H60.4957L76.6413 111.473L95.0625 199L114.635 134.915L120.817 153.055H214.618C223.55 171.122 244.304 181.354 244.304 181.354C244.304 181.354 278 164.742 278 136.474C278 126.78 270.219 118.924 260.621 118.924Z" fill="#699CFF"/>
</svg>
