<svg width="280" height="280" viewBox="0 0 280 280" fill="none" xmlns="http://www.w3.org/2000/svg">
<path d="M46.3261 209.322C53.7321 227.395 65.8076 231.158 74.2981 227.395C90.7183 220.12 133.372 211.992 177.179 231.099C235.199 256.406 247.544 218.225 229.027 179.604C210.51 140.983 204.233 101.926 225.58 80.4084C246.927 58.8906 218.992 25.2294 169.384 60.2685C137.325 82.9121 113.798 77.8698 101.164 71.4685C89.2566 65.4354 76.0143 59.1283 63.6076 64.0528C48.553 70.0286 42.6216 82.9846 65.5256 111.928C97.9839 152.943 29.7235 168.812 46.3261 209.322Z" fill="#DEE9FF"/>
<path d="M214.055 84.5613C213.858 84.811 213.637 85.0407 213.395 85.2473L196.089 100.224L183.172 139.456L147.163 165.769C147.163 165.769 141.028 170.909 135.427 171.386C134.174 171.824 130.375 173.302 128.272 175.586C127.593 176.322 122.274 192.031 114.024 214.246C113.611 215.358 112.798 216.275 111.743 216.818C110.689 217.36 109.469 217.489 108.325 217.179C98.0156 214.381 74.9245 208.22 63.9382 204.058C63.2611 203.802 62.6571 203.384 62.1788 202.841C61.7006 202.298 61.3627 201.645 61.1947 200.941C61.0267 200.237 61.0338 199.503 61.2152 198.802C61.3967 198.102 61.747 197.456 62.2356 196.922C74.86 183.123 101.402 151.538 101.402 151.538L103.203 147.798C103.203 147.798 114.541 112.371 118.25 110.068C119.653 108.545 127.72 96.7353 130.894 88.4966C131.616 87.2976 134.962 82.3075 137.765 77.999C139.751 74.919 141.475 72.179 141.769 71.3964C141.832 71.2171 141.938 71.0558 142.078 70.9266C142.078 70.9266 142.069 70.9241 142.08 70.9176C143.418 69.5206 147.855 69.8361 148.071 75.1399C148.311 80.9905 143.05 93.1274 141.991 93.458C141.455 94.7488 139.933 101.701 136.955 107.587C136.698 108.477 136.315 110.775 138.827 110.218C141.341 109.651 199.497 82.2543 199.497 82.2543L206.709 77.7233C207.771 77.0358 209.035 76.7277 210.295 76.849C211.787 77.0206 213.154 77.7636 214.11 78.922C216.168 81.3068 214.824 83.5979 214.055 84.5613Z" fill="#699CFF"/>
<path d="M140.705 78.9615C139.666 79.057 138.605 78.5586 137.765 77.9983C139.751 74.9183 141.475 72.1783 141.769 71.3957C141.833 71.2164 141.939 71.0551 142.078 70.9259C144.472 73.784 140.992 78.6683 140.705 78.9615Z" fill="#D4E5FF"/>
<path d="M200.134 72.6463L157.518 60.3628C154.546 59.5062 151.442 61.2209 150.586 64.1927L124.798 153.659C123.942 156.63 125.656 159.734 128.628 160.591L171.244 172.874C174.216 173.731 177.32 172.016 178.176 169.044L203.964 79.5782C204.82 76.6064 203.106 73.5029 200.134 72.6463Z" fill="#0E84E5"/>
<path d="M197.894 74.887L158.221 63.4519C155.993 62.8095 153.665 64.0955 153.023 66.3244L127.996 153.151C127.353 155.38 128.639 157.708 130.868 158.35L170.54 169.785C172.769 170.427 175.097 169.141 175.739 166.913L200.766 80.0859C201.408 77.857 200.122 75.5294 197.894 74.887Z" fill="#D4E5FF"/>
<path d="M199.924 104.157L192.771 104.1C189.233 104.073 186.343 106.918 186.315 110.456C186.287 113.994 189.132 116.884 192.67 116.912L199.823 116.969C203.36 116.997 206.251 114.151 206.279 110.613C206.307 107.075 203.462 104.185 199.924 104.157Z" fill="#699CFF"/>
<path d="M197.444 117.398L188.388 117.327C185.519 117.304 183.175 119.611 183.152 122.48C183.13 125.349 185.437 127.693 188.306 127.716L197.362 127.787C200.231 127.81 202.575 125.503 202.597 122.634C202.62 119.765 200.313 117.421 197.444 117.398Z" fill="#699CFF"/>
<path d="M191.405 128.765L186.054 128.723C183.886 128.706 182.114 130.45 182.097 132.619C182.08 134.787 183.824 136.559 185.992 136.576L191.343 136.618C193.511 136.635 195.283 134.891 195.3 132.723C195.317 130.554 193.573 128.783 191.405 128.765Z" fill="#699CFF"/>
<path d="M188.256 130.186L185.13 130.162C184.589 130.158 184.147 130.593 184.142 131.134L184.12 133.931C184.116 134.472 184.551 134.914 185.093 134.919L188.219 134.943C188.76 134.947 189.202 134.512 189.206 133.971L189.229 131.174C189.233 130.633 188.798 130.191 188.256 130.186Z" fill="#D4E5FF"/>
<path d="M191.426 119.792L187.924 119.764C186.764 119.755 185.817 120.688 185.807 121.848L185.794 123.542C185.785 124.701 186.718 125.649 187.877 125.658L191.38 125.686C192.54 125.695 193.487 124.762 193.496 123.602L193.51 121.908C193.519 120.749 192.586 119.801 191.426 119.792Z" fill="#D4E5FF"/>
<path d="M195.913 106.356L193.085 106.333C191.539 106.321 190.275 107.565 190.263 109.111L190.246 111.335C190.233 112.881 191.477 114.145 193.023 114.157L195.851 114.179C197.398 114.192 198.661 112.948 198.673 111.402L198.691 109.178C198.703 107.631 197.459 106.368 195.913 106.356Z" fill="#D4E5FF"/>
<path d="M224.38 41.8482C219.835 39.0726 216.103 40.4918 214.992 42.3102C214.19 43.6236 214.931 44.9081 215.84 45.4633C217.658 46.5735 218.501 43.5284 221.935 45.6256C223.619 46.6536 224.513 48.217 223.567 49.7658C222.456 51.5841 219.934 51.4766 218.247 51.7409C216.757 51.9866 214.634 52.5859 212.866 55.4817C211.796 57.2327 211.959 58.0255 213.34 58.8686C214.989 59.8759 215.778 59.3408 216.169 58.7006C217.238 56.9496 217.889 55.9599 220.625 55.6428C221.966 55.4909 226.226 54.9486 228.159 51.7835C230.092 48.6183 228.69 44.4799 224.38 41.8482Z" fill="#0E84E5"/>
<path d="M211.954 61.2122C211.614 61.0043 211.235 60.8654 210.841 60.8036C210.447 60.7418 210.045 60.7583 209.657 60.852C209.269 60.9458 208.904 61.115 208.581 61.35C208.259 61.585 207.986 61.8812 207.778 62.2217C207.57 62.5622 207.431 62.9403 207.369 63.3345C207.307 63.7286 207.324 64.1311 207.418 64.5189C207.511 64.9067 207.681 65.2722 207.916 65.5946C208.151 65.917 208.447 66.19 208.787 66.3979C209.475 66.8179 210.301 66.9475 211.085 66.7581C211.868 66.5688 212.544 66.0761 212.964 65.3885C213.384 64.7008 213.513 63.8745 213.324 63.0913C213.134 62.3081 212.642 61.6322 211.954 61.2122Z" fill="#0E84E5"/>
<path d="M174.963 134.802L158.028 100.272C157.875 99.9687 157.608 99.7376 157.285 99.6294C156.962 99.5211 156.61 99.5445 156.304 99.6943C155.999 99.8441 155.764 100.108 155.652 100.43C155.54 100.751 155.559 101.104 155.706 101.411L163.203 116.7L151.536 121.114C151.377 121.174 151.231 121.265 151.107 121.381C150.984 121.497 150.884 121.637 150.814 121.792C150.673 122.104 150.662 122.46 150.783 122.781C150.905 123.102 151.149 123.362 151.461 123.503C151.774 123.644 152.13 123.655 152.451 123.533L162.13 119.872L158.532 132.297C158.465 132.528 158.464 132.772 158.528 133.004C158.593 133.235 158.72 133.444 158.897 133.607C159.073 133.77 159.292 133.88 159.528 133.926C159.763 133.972 160.007 133.951 160.232 133.866L169.841 130.232L172.64 135.941C172.713 136.095 172.817 136.234 172.944 136.348C173.072 136.463 173.22 136.55 173.382 136.607C173.544 136.663 173.715 136.687 173.886 136.677C174.057 136.666 174.224 136.622 174.377 136.547C174.531 136.472 174.668 136.367 174.781 136.238C174.894 136.109 174.98 135.959 175.034 135.797C175.089 135.635 175.111 135.463 175.098 135.292C175.086 135.122 175.04 134.955 174.963 134.802ZM161.736 130.531L164.615 120.592L166.041 122.486L168.695 127.899L161.736 130.531ZM165.384 108.632L167.166 102.478C167.233 102.247 167.363 102.039 167.541 101.878C167.719 101.717 167.939 101.609 168.175 101.565C168.411 101.522 168.655 101.545 168.879 101.632C169.103 101.719 169.298 101.867 169.442 102.059L177.223 112.392C177.344 112.553 177.426 112.739 177.462 112.936C177.499 113.134 177.488 113.337 177.432 113.53C177.377 113.723 177.277 113.9 177.14 114.048C177.004 114.195 176.836 114.309 176.648 114.38L170.309 116.778C169.988 116.9 169.632 116.889 169.32 116.747C169.007 116.606 168.763 116.347 168.642 116.026C168.52 115.705 168.531 115.349 168.672 115.037C168.813 114.724 169.073 114.48 169.394 114.359L174.12 112.571L168.932 105.682L167.869 109.352C167.774 109.681 167.551 109.96 167.251 110.125C166.95 110.291 166.596 110.33 166.267 110.235C165.937 110.139 165.659 109.917 165.494 109.616C165.328 109.316 165.289 108.962 165.384 108.632Z" fill="#0E84E5"/>
</svg>
