<svg width="272" height="330" viewBox="0 0 272 330" fill="none" xmlns="http://www.w3.org/2000/svg">
<path d="M62.7503 41.5747C62.2813 41.5747 61.8301 41.3173 61.6084 40.8712C61.2923 40.2416 61.5472 39.477 62.1768 39.1609C66.3137 37.0937 77.5085 33.7954 87.383 30.8871C94.7086 28.7282 103.01 26.2812 104.033 25.537C104.754 24.158 104.774 12.1042 104.298 1.33248C104.267 0.628979 104.812 0.0325394 105.516 0.00195312C106.209 -0.0362816 106.813 0.516842 106.844 1.22034C107.328 12.1883 107.537 25.6338 105.781 27.39C104.879 28.2923 100.994 29.5311 88.1044 33.3316C78.3293 36.2093 67.2517 39.4744 63.3187 41.4422C63.1352 41.5314 62.9414 41.5747 62.7503 41.5747Z" fill="#8D8D8D"/>
<path d="M1.27603 145.873C1.24289 145.873 1.2072 145.871 1.17151 145.868C0.470563 145.81 -0.0519533 145.195 0.00412282 144.494C0.0219652 144.283 1.75523 123.073 3.80201 91.6759C5.88447 59.7584 20.4515 49.7794 32.908 44.6484C60.9945 33.0865 91.7446 48.8566 93.0395 49.5321C93.664 49.8584 93.9036 50.6281 93.5799 51.2526C93.2511 51.8771 92.4813 52.1193 91.8593 51.793C91.5535 51.6299 60.8442 35.8954 33.8792 47.0062C21.3742 52.155 8.32378 61.5069 6.34582 91.8415C4.2965 123.262 2.56323 144.492 2.54538 144.704C2.49186 145.369 1.93365 145.873 1.27603 145.873Z" fill="#8D8D8D"/>
<path d="M46.969 132.112C46.9562 132.438 45.562 165.09 43.1787 184.155L45.7098 184.471C48.1032 165.301 49.5026 132.548 49.5153 132.219C49.5459 131.515 49.0005 130.921 48.297 130.891C47.6215 130.858 46.9996 131.408 46.969 132.112Z" fill="#8D8D8D"/>
<path d="M94.7767 153.841C87.5862 153.841 67.1643 153.329 56.9584 147.79C44.3668 140.954 43.5435 109.029 43.5154 107.673C43.5002 106.969 44.0584 106.386 44.7619 106.37C45.5571 106.36 46.0491 106.916 46.0644 107.619C46.0695 107.935 46.8775 139.417 58.1768 145.55C69.8228 151.873 96.9891 151.277 97.2517 151.267C98.052 151.297 98.5414 151.807 98.5567 152.508C98.5746 153.214 98.0189 153.798 97.3154 153.816C97.1242 153.821 96.2142 153.841 94.7767 153.841Z" fill="#8D8D8D"/>
<path d="M117.662 57.4619C117.573 57.4619 117.483 57.4517 117.394 57.4338C112.569 56.399 103.604 54.6785 103.604 54.6785L104.086 52.1729C104.086 52.1729 113.084 53.9036 117.927 54.941C118.615 55.0888 119.053 55.7643 118.906 56.4526C118.778 57.0515 118.251 57.4619 117.662 57.4619Z" fill="#8D8D8D"/>
<path d="M59.0638 278.448C57.8505 288.776 57.1598 298.148 57.0145 300.2C55.6013 301.92 49.2622 309.898 45.91 318.686L48.4653 319.154C52.0853 310.019 59.1373 301.633 59.2293 301.523L59.2295 301.523C59.4079 301.314 59.5124 301.057 59.5303 300.784C59.5354 300.679 60.2338 290.318 61.5949 278.746C62.8592 268.02 59.6093 249.609 52.9056 229.498C47.1578 212.255 45.7304 184.53 45.7177 184.253C45.682 183.549 45.1111 182.981 44.3821 183.042C43.6786 183.078 43.1357 183.674 43.1713 184.378C43.1841 184.66 44.6293 212.729 50.4893 230.304C57.0782 250.078 60.2847 268.076 59.0638 278.448Z" fill="#8D8D8D"/>
<path d="M84.5879 233.479C84.1596 233.479 83.7391 233.273 83.502 232.893C83.1375 232.31 83.2752 231.555 83.8487 231.173C84.3457 230.841 85.192 230.579 87.2311 229.967C94.2967 227.836 110.847 222.848 118.544 209.502C118.896 208.893 119.674 208.681 120.285 209.035C120.897 209.387 121.106 210.167 120.752 210.776C112.549 224.997 95.3213 230.189 87.9652 232.406C86.7672 232.768 85.5259 233.14 85.2531 233.301C85.0467 233.423 84.8147 233.479 84.5879 233.479Z" fill="#8D8D8D"/>
<path d="M118.35 156.173C118.329 156.173 118.309 156.173 118.289 156.171L104.642 155.523C103.938 155.488 103.395 154.891 103.428 154.188C103.464 153.484 104.068 152.967 104.764 152.977L118.411 153.625C119.112 153.66 119.655 154.257 119.622 154.96C119.589 155.641 119.025 156.173 118.35 156.173Z" fill="#8D8D8D"/>
<path d="M137.196 136.677C136.49 136.677 135.922 136.106 135.922 135.403V102.259C135.922 101.556 136.49 100.985 137.196 100.985C137.9 100.985 138.471 101.556 138.471 102.259V135.403C138.471 136.106 137.9 136.677 137.196 136.677Z" fill="#8D8D8D"/>
<path d="M137.22 281.56C131.931 281.56 127.486 277.591 127.241 277.369C126.721 276.898 126.683 276.092 127.155 275.572C127.629 275.052 128.434 275.009 128.954 275.483C129.02 275.542 135.495 281.29 141.09 277.933C141.694 277.568 142.476 277.767 142.838 278.368C143.2 278.973 143.004 279.755 142.402 280.117C140.661 281.162 138.9 281.56 137.22 281.56Z" fill="#8D8D8D"/>
<path d="M208.765 41.5747C208.574 41.5747 208.38 41.5314 208.197 41.4422C204.264 39.4744 193.186 36.2093 183.411 33.3316C170.519 29.5311 166.634 28.2923 165.732 27.39C163.886 25.5421 164.118 12.41 164.419 4.748C164.447 4.04195 165.117 3.46333 165.742 3.52451C166.445 3.55 166.993 4.14394 166.965 4.84744C166.614 13.7865 166.754 24.2854 167.595 25.6593C168.505 26.2812 176.807 28.7282 184.132 30.8871C194.007 33.7954 205.202 37.0937 209.336 39.1609C209.966 39.477 210.223 40.2416 209.907 40.8712C209.685 41.3173 209.234 41.5747 208.765 41.5747Z" fill="#8D8D8D"/>
<path d="M270.238 145.873C269.583 145.873 269.025 145.369 268.969 144.704C268.953 144.492 267.22 123.262 265.171 91.8415C263.193 61.5069 250.142 52.155 237.637 47.0062C210.639 35.8903 179.965 51.6299 179.657 51.793C179.035 52.1193 178.263 51.8771 177.937 51.2526C177.613 50.6281 177.852 49.8584 178.477 49.5321C179.772 48.8541 210.522 33.0789 238.608 44.6484C251.065 49.7794 265.632 59.7584 267.714 91.6759C269.761 123.073 271.494 144.283 271.51 144.494C271.568 145.195 271.046 145.81 270.345 145.868C270.309 145.871 270.274 145.873 270.238 145.873Z" fill="#8D8D8D"/>
<path d="M222 132.219C222.012 132.548 223.409 165.301 225.808 184.472L228.336 184.156C225.953 165.09 224.559 132.438 224.546 132.112C224.515 131.408 223.906 130.853 223.218 130.891C222.514 130.921 221.969 131.515 222 132.219Z" fill="#8D8D8D"/>
<path d="M176.738 153.841C175.298 153.841 174.391 153.821 174.2 153.816C173.496 153.798 172.94 153.214 172.956 152.508C172.973 151.807 173.496 151.277 174.263 151.267C174.531 151.277 201.692 151.873 213.338 145.55C224.637 139.417 225.445 107.935 225.451 107.619C225.466 106.916 225.935 106.352 226.753 106.37C227.456 106.386 228.015 106.969 227.999 107.673C227.971 109.029 227.148 140.954 214.556 147.79C204.353 153.329 183.931 153.841 176.738 153.841Z" fill="#8D8D8D"/>
<path d="M135.019 62.0245C132.083 62.0245 129.277 60.5819 126.669 57.7399C126.193 57.2199 126.228 56.4144 126.748 55.9378C127.268 55.4637 128.074 55.4968 128.548 56.0168C130.681 58.3439 132.978 59.4833 135.114 59.4756C138.443 59.4246 140.78 56.761 140.803 56.7355C141.267 56.2003 142.072 56.1442 142.6 56.603C143.133 57.0643 143.194 57.8698 142.732 58.4025C142.608 58.5478 139.61 61.9583 135.152 62.022C135.109 62.0245 135.065 62.0245 135.019 62.0245Z" fill="#8D8D8D"/>
<path d="M153.855 57.4619C153.266 57.4619 152.738 57.0515 152.611 56.4526C152.463 55.7643 152.901 55.0888 153.589 54.941C158.432 53.9036 167.43 52.1729 167.43 52.1729L167.909 54.6785C167.907 54.6785 158.947 56.399 154.122 57.4338C154.033 57.4517 153.944 57.4619 153.855 57.4619Z" fill="#8D8D8D"/>
<path d="M211.984 300.784C212.002 301.056 212.106 301.314 212.284 301.523L212.285 301.523C212.358 301.611 216.878 306.985 220.538 313.804L222.741 312.494C219.459 306.387 215.569 301.501 214.5 300.2C214.354 298.148 213.663 288.776 212.45 278.448C211.229 268.076 214.436 250.078 221.025 230.304C226.885 212.729 228.33 184.66 228.343 184.377C228.378 183.674 227.835 183.077 227.134 183.042C226.372 182.988 225.832 183.549 225.796 184.252C225.784 184.53 224.356 212.255 218.608 229.498C211.905 249.609 208.655 268.02 209.917 278.746C211.28 290.318 211.976 300.679 211.984 300.784Z" fill="#8D8D8D"/>
<path d="M186.96 233.508C186.718 233.508 186.478 233.441 186.261 233.299C185.978 233.138 184.745 232.766 183.552 232.406C176.193 230.189 158.968 224.997 150.763 210.776C150.411 210.167 150.62 209.387 151.229 209.035C151.838 208.681 152.618 208.893 152.973 209.502C160.67 222.848 177.22 227.836 184.286 229.967C186.325 230.579 187.171 230.841 187.666 231.173C188.252 231.565 188.41 232.355 188.02 232.942C187.775 233.309 187.37 233.508 186.96 233.508Z" fill="#8D8D8D"/>
<path d="M153.165 156.173C152.489 156.173 151.923 155.641 151.893 154.96C151.86 154.257 152.4 153.66 153.104 153.625L166.75 152.977C167.456 152.934 168.053 153.484 168.086 154.188C168.119 154.891 167.576 155.488 166.873 155.523L153.226 156.171C153.205 156.173 153.185 156.173 153.165 156.173Z" fill="#8D8D8D"/>
<path d="M148.236 326.199C146.057 326.199 143.865 326.168 141.665 326.102C99.993 324.84 48.3087 319.136 47.7913 319.08C47.0929 319.001 46.5882 318.371 46.6646 317.67C46.7411 316.972 47.3962 316.47 48.0716 316.544C48.5891 316.602 100.177 322.294 141.742 323.553C183.144 324.805 221.969 313.513 222.356 313.401C223.037 313.2 223.743 313.587 223.939 314.26C224.138 314.938 223.753 315.644 223.078 315.843C222.708 315.952 187.502 326.199 148.236 326.199Z" fill="#8D8D8D"/>
<path d="M245.725 154.224C245.467 154.224 245.21 154.147 244.985 153.986C235.858 147.466 229.419 139.792 229.149 139.468C228.698 138.928 228.772 138.125 229.312 137.673C229.855 137.22 230.658 137.296 231.107 137.837C231.17 137.913 237.617 145.593 246.466 151.914C247.037 152.322 247.172 153.117 246.762 153.691C246.512 154.04 246.122 154.224 245.725 154.224Z" fill="#8D8D8D"/>
<path d="M22.1669 158.123C21.8687 158.123 21.568 158.019 21.3258 157.805C20.7982 157.338 20.7472 156.535 21.2111 156.005C21.6342 155.526 31.6871 144.145 39.5556 137.668C40.0985 137.22 40.9015 137.299 41.3501 137.842C41.7961 138.385 41.7171 139.188 41.1742 139.636C33.4637 145.983 23.2273 157.575 23.1228 157.693C22.873 157.978 22.5187 158.123 22.1669 158.123Z" fill="#8D8D8D"/>
<path d="M49.461 77.5374C49.201 77.5374 48.941 77.4583 48.7142 77.2952C48.1432 76.8823 48.0183 76.0845 48.4312 75.5135C48.8645 74.9196 59.1622 60.8904 72.2891 54.3269C72.9186 54.016 73.6833 54.2683 73.9994 54.8979C74.3129 55.5275 74.058 56.2921 73.4284 56.6082C60.8521 62.8964 50.5952 76.8721 50.4933 77.0123C50.2435 77.3564 49.8561 77.5374 49.461 77.5374Z" fill="#8D8D8D"/>
<path d="M223.631 76.2399C223.192 76.2399 222.767 76.013 222.53 75.6077C213.858 60.7425 198.873 58.0483 198.723 58.0253C198.029 57.9055 197.56 57.2505 197.678 56.5546C197.795 55.8613 198.442 55.3872 199.143 55.5096C199.803 55.6192 215.436 58.3924 224.729 74.3231C225.086 74.9297 224.88 75.7123 224.273 76.064C224.072 76.1838 223.85 76.2399 223.631 76.2399Z" fill="#8D8D8D"/>
<circle cx="82.2323" cy="68.5447" r="10.0143" fill="#E02222" stroke="#8D8D8D"/>
<circle cx="189.287" cy="68.5447" r="10.0143" fill="#E1CD11" stroke="#8D8D8D"/>
<circle cx="189.287" cy="275.006" r="10.0143" fill="#209C25" stroke="#8D8D8D"/>
<circle cx="84.1442" cy="275.006" r="10.0143" fill="black" stroke="#8D8D8D"/>
<path d="M69.9151 101.059V84.375H75.5524C76.8558 84.375 77.9257 84.5977 78.7621 85.043C79.5984 85.4829 80.2175 86.0885 80.6194 86.8597C81.0213 87.6309 81.2223 88.508 81.2223 89.491C81.2223 90.474 81.0213 91.3456 80.6194 92.106C80.2175 92.8663 79.6011 93.4637 78.7702 93.8982C77.9393 94.3272 76.8775 94.5417 75.585 94.5417H71.023V92.7169H75.5198C76.4105 92.7169 77.1273 92.5866 77.6704 92.3259C78.219 92.0652 78.6154 91.6959 78.8598 91.218C79.1096 90.7346 79.2345 90.159 79.2345 89.491C79.2345 88.823 79.1096 88.2391 78.8598 87.7395C78.61 87.2398 78.2108 86.8543 77.6623 86.5827C77.1138 86.3057 76.3887 86.1672 75.4872 86.1672H71.9354V101.059H69.9151ZM77.7682 93.5642L81.874 101.059H79.5278L75.4872 93.5642H77.7682ZM85.2731 101.059H83.155L89.2811 84.375H91.3666L97.4926 101.059H95.3746L90.389 87.0145H90.2586L85.2731 101.059ZM86.0551 94.5417H94.5925V96.3339H86.0551V94.5417Z" fill="black"/>
<path d="M74.6643 306.841V290.157H80.3016C81.6051 290.157 82.675 290.38 83.5113 290.825C84.3477 291.265 84.9668 291.871 85.3687 292.642C85.7706 293.413 85.9715 294.29 85.9715 295.273C85.9715 296.256 85.7706 297.128 85.3687 297.888C84.9668 298.649 84.3504 299.246 83.5195 299.681C82.6885 300.11 81.6268 300.324 80.3342 300.324H75.7723V298.499H80.2691C81.1597 298.499 81.8766 298.369 82.4197 298.108C82.9682 297.848 83.3647 297.478 83.6091 297C83.8589 296.517 83.9838 295.941 83.9838 295.273C83.9838 294.605 83.8589 294.021 83.6091 293.522C83.3593 293.022 82.9601 292.637 82.4116 292.365C81.863 292.088 81.138 291.95 80.2365 291.95H76.6847V306.841H74.6643ZM82.5175 299.347L86.6232 306.841H84.2771L80.2365 299.347H82.5175ZM89.338 306.841V290.157H91.3583V305.049H99.1137V306.841H89.338Z" fill="black"/>
<path d="M179.807 306.841V290.157H181.827V305.049H189.583V306.841H179.807ZM192.711 306.841V290.157H194.731V305.049H202.487V306.841H192.711Z" fill="black"/>
<path d="M175.984 100.379V83.6953H178.004V98.5869H185.759V100.379H175.984ZM190.625 100.379H188.507L194.633 83.6953H196.718L202.844 100.379H200.726L195.741 86.3348H195.61L190.625 100.379ZM191.407 93.862H199.944V95.6542H191.407V93.862Z" fill="black"/>
</svg>
